HIERARCHY
ROOT Root
{
	OFFSET 0.00000 0.00000 0.00000
	CHANNELS 6 Xposition Yposition Zposition Zrotation Xrotation Yrotation
	JOINT Hip
	{
		OFFSET 0 0 0	
		CHANNELS 3 Zrotation Xrotation Yrotation
		JOINT Tummy
		{
			OFFSET 0 0.04 0	
			CHANNELS 3 Zrotation Xrotation Yrotation
			JOINT ChestBottom
			{
				OFFSET 0 0.194 0	
				CHANNELS 3 Zrotation Xrotation Yrotation
				JOINT ChestTop
				{
					OFFSET 0 0.166 0	
					CHANNELS 3 Zrotation Xrotation Yrotation
					JOINT LeftCollar
					{
						OFFSET 0 0.1 0	
						CHANNELS 3 Zrotation Xrotation Yrotation
						JOINT LeftUpperArm
						{
							OFFSET 0.156 -0.02 0.03	
							CHANNELS 3 Zrotation Xrotation Yrotation
							JOINT LeftForeArm
							{
								OFFSET 0.035 -0.27 -0.01	
								CHANNELS 3 Zrotation Xrotation Yrotation
								JOINT LeftHand
								{
									OFFSET 0.01 -0.27 0.01	
									CHANNELS 3 Zrotation Xrotation Yrotation
									End Site
									{
										OFFSET 0 -0.15 0
									}
								}
							}
						}
					}
					JOINT RightCollar
					{
						OFFSET 0 0.1 0	
						CHANNELS 3 Zrotation Xrotation Yrotation
						JOINT RightUpperArm
						{
							OFFSET -0.156 -0.02 0.03	
							CHANNELS 3 Zrotation Xrotation Yrotation
							JOINT RightForeArm
							{
								OFFSET -0.035 -0.27 -0.01	
								CHANNELS 3 Zrotation Xrotation Yrotation
								JOINT RightHand
								{
									OFFSET -0.01 -0.27 0.01	
									CHANNELS 3 Zrotation Xrotation Yrotation
									End Site
									{
										OFFSET 0 -0.15 0
									}
								}
							}
						}
					}
					JOINT Neck
					{
						OFFSET 0 0.1 0	
						CHANNELS 3 Zrotation Xrotation Yrotation
						JOINT Head
						{
							OFFSET 0 0.127 0.03	
							CHANNELS 3 Zrotation Xrotation Yrotation
							End Site
							{
								OFFSET 0 0.127 0.03
							}
						}
					}
				}
			}
		}
	}
	JOINT LeftHip
	{
		OFFSET 0 0 0	
		CHANNELS 3 Zrotation Xrotation Yrotation
		JOINT LeftThigh
		{
			OFFSET 0.088 -0.06 0	
			CHANNELS 3 Zrotation Xrotation Yrotation
			JOINT LeftLowerLeg
			{
				OFFSET 0 -0.39 0.02	
				CHANNELS 3 Zrotation Xrotation Yrotation
				JOINT LeftFootTop
				{
					OFFSET 0 -0.43 -0.02	
					CHANNELS 3 Zrotation Xrotation Yrotation
					JOINT LeftFootFront
					{
						OFFSET 0 -0.07 0.085	
						CHANNELS 3 Zrotation Xrotation Yrotation
						End Site
						{
							OFFSET 0 -0.005 0.09
						}
					}
				}
				JOINT LeftHeel
				{
					OFFSET 0 -0.43 -0.02	
					CHANNELS 3 Zrotation Xrotation Yrotation
					End Site
					{
						OFFSET 0 -0.075 -0.05
					}
				}
			}
		}
	}
	JOINT RightHip
	{
		OFFSET 0 0 0	
		CHANNELS 3 Zrotation Xrotation Yrotation
		JOINT RightThigh
		{
			OFFSET -0.088 -0.06 0	
			CHANNELS 3 Zrotation Xrotation Yrotation
			JOINT RightLowerLeg
			{
				OFFSET 0 -0.39 0.02	
				CHANNELS 3 Zrotation Xrotation Yrotation
				JOINT RightFootTop
				{
					OFFSET 0 -0.43 -0.02	
					CHANNELS 3 Zrotation Xrotation Yrotation
					JOINT RightFootFront
					{
						OFFSET 0 -0.07 0.085	
						CHANNELS 3 Zrotation Xrotation Yrotation
						End Site
						{
							OFFSET 0 -0.005 0.09
						}
					}
				}
				JOINT RightHeel
				{
					OFFSET 0 -0.43 -0.02	
					CHANNELS 3 Zrotation Xrotation Yrotation
					End Site
					{
						OFFSET 0 -0.075 -0.05
					}
				}
			}
		}
	}
}
MOTION
Frames: 13
Frame Time: 0.025
0 0.96366 0 -0 0 -0 121.12 2.5576 -27.654 -20.419 -10.118 8.1336 -20.419 -10.118 8.1336 -17.221 -8.316 7.0728 -0 0 -0 -27.536 -19.547 -68.322 -76.101 -61.95 -50.245 -0 0 -0 -0 0 -0 39.95 -13.138 -10.403 128.63 -60.426 103.61 -0 0 -0 12.443 -18.534 6.715 12.443 -18.534 6.715 121.12 2.5576 -27.654 125.66 -70.318 133.98 -122.63 42.518 124.24 -0 0 -0 -0 0 -0 -0 0 -0 121.12 2.5576 -27.654 -123.94 -22.022 -17.108 86.507 7.5007 -10.177 -0 0 -0 -0 0 -0 -0 0 -0 
0 0.96366 0 -0 0 -0 121.13 2.5833 -27.641 -20.407 -10.123 8.2228 -20.407 -10.123 8.2228 -17.212 -8.3183 7.1476 -0 0 -0 -27.651 -19.376 -68.451 -75.876 -62.038 -50.15 -0 0 -0 -0 0 -0 39.828 -13.19 -10.575 128.73 -60.442 103.64 -0 0 -0 12.341 -18.543 6.7088 12.341 -18.543 6.7088 121.13 2.5833 -27.641 125.71 -70.307 134.06 -122.62 42.543 124.27 -0 0 -0 -0 0 -0 -0 0 -0 121.13 2.5833 -27.641 -123.94 -21.995 -17.125 86.465 7.5105 -10.112 -0 0 -0 -0 0 -0 -0 0 -0 
0 0.96366 0 -0 0 -0 121.11 2.5911 -27.618 -20.418 -10.097 8.3411 -20.418 -10.097 8.3411 -17.222 -8.2934 7.2465 -0 0 -0 -27.773 -19.17 -68.698 -75.662 -62.104 -50.068 -0 0 -0 -0 0 -0 39.727 -13.345 -10.805 128.85 -60.466 103.67 -0 0 -0 12.256 -18.56 6.8188 12.256 -18.56 6.8188 121.11 2.5911 -27.618 125.73 -70.316 134.12 -122.63 42.565 124.33 -0 0 -0 -0 0 -0 -0 0 -0 121.11 2.5911 -27.618 -123.91 -21.976 -17.112 86.415 7.5166 -9.9884 -0 0 -0 -0 0 -0 -0 0 -0 
0 0.96366 0 -0 0 -0 121.08 2.588 -27.583 -20.441 -10.052 8.465 -20.441 -10.052 8.465 -17.243 -8.2524 7.3497 -0 0 -0 -27.884 -18.986 -69.029 -75.463 -62.156 -49.958 -0 0 -0 -0 0 -0 39.638 -13.544 -11.047 128.99 -60.503 103.72 -0 0 -0 12.292 -18.474 7.2291 12.292 -18.474 7.2291 121.08 2.588 -27.583 125.76 -70.339 134.19 -122.63 42.585 124.42 -0 0 -0 -0 0 -0 -0 0 -0 121.08 2.588 -27.583 -123.87 -21.958 -17.075 86.363 7.5186 -9.8324 -0 0 -0 -0 0 -0 -0 0 -0 
0 0.96366 0 -0 0 -0 121.03 2.584 -27.536 -20.465 -10.003 8.5659 -20.465 -10.003 8.5659 -17.264 -8.2088 7.4337 -0 0 -0 -27.972 -18.874 -69.35 -75.284 -62.17 -49.79 -0 0 -0 -0 0 -0 39.544 -13.72 -11.231 129.17 -60.561 103.8 -0 0 -0 12.473 -18.256 7.8227 12.473 -18.256 7.8227 121.03 2.584 -27.536 125.83 -70.37 134.27 -122.63 42.6 124.52 -0 0 -0 -0 0 -0 -0 0 -0 121.03 2.584 -27.536 -123.81 -21.935 -17.027 86.32 7.5153 -9.662 -0 0 -0 -0 0 -0 -0 0 -0 
0 0.96366 0 -0 0 -0 120.97 2.5865 -27.478 -20.478 -9.9627 8.6234 -20.478 -9.9626 8.6234 -17.276 -8.173 7.4813 -0 0 -0 -28.043 -18.857 -69.556 -75.108 -62.086 -49.521 -0 0 -0 -0 0 -0 39.456 -13.826 -11.286 129.39 -60.656 103.95 -0 0 -0 12.616 -17.986 8.4154 12.616 -17.986 8.4154 120.97 2.5865 -27.478 125.93 -70.399 134.37 -122.62 42.608 124.6 -0 0 -0 -0 0 -0 -0 0 -0 120.97 2.5865 -27.478 -123.74 -21.901 -16.976 86.295 7.5067 -9.4875 -0 0 -0 -0 0 -0 -0 0 -0 
0 0.96366 0 -0 0 -0 120.93 2.5913 -27.408 -20.469 -9.9374 8.6329 -20.469 -9.9374 8.6329 -17.268 -8.1516 7.4885 -0 0 -0 -28.13 -18.931 -69.559 -74.856 -61.845 -49.084 -0 0 -0 -0 0 -0 39.401 -13.819 -11.166 129.66 -60.798 104.23 -0 0 -0 12.53 -17.727 9.1533 12.53 -17.727 9.1533 120.93 2.5913 -27.408 126.06 -70.428 134.47 -122.6 42.616 124.66 -0 0 -0 -0 0 -0 -0 0 -0 120.93 2.5913 -27.408 -123.67 -21.854 -16.921 86.288 7.4926 -9.3141 -0 0 -0 -0 0 -0 -0 0 -0 
0 0.96366 0 -0 0 -0 120.87 2.583 -27.328 -20.424 -9.9214 8.6045 -20.424 -9.9214 8.6045 -17.23 -8.1393 7.4638 -0 0 -0 -28.297 -19.089 -69.322 -74.44 -61.435 -48.432 -0 0 -0 -0 0 -0 39.366 -13.694 -10.863 129.97 -60.982 104.66 -0 0 -0 12.167 -17.488 10.268 12.167 -17.488 10.268 120.87 2.583 -27.328 126.19 -70.474 134.57 -122.59 42.635 124.68 -0 0 -0 -0 0 -0 -0 0 -0 120.87 2.583 -27.328 -123.6 -21.806 -16.847 86.294 7.4752 -9.1442 -0 0 -0 -0 0 -0 -0 0 -0 
0 0.96366 0 -0 0 -0 120.81 2.5459 -27.233 -20.337 -9.8988 8.5595 -20.337 -9.8988 8.5595 -17.157 -8.1221 7.4243 -0 0 -0 -28.629 -19.313 -68.886 -73.825 -60.887 -47.586 -0 0 -0 -0 0 -0 39.309 -13.491 -10.418 130.31 -61.203 105.2 -0 0 -0 11.539 -17.271 11.825 11.539 -17.271 11.825 120.81 2.5459 -27.233 126.31 -70.56 134.65 -122.58 42.674 124.7 -0 0 -0 -0 0 -0 -0 0 -0 120.81 2.5459 -27.233 -123.52 -21.765 -16.734 86.311 7.4588 -8.9867 -0 0 -0 -0 0 -0 -0 0 -0 
0 0.96366 0 -0 0 -0 120.71 2.4715 -27.115 -20.219 -9.8714 8.5187 -20.219 -9.8714 8.5187 -17.057 -8.1011 7.388 -0 0 -0 -29.138 -19.524 -68.331 -73.004 -60.26 -46.595 -0 0 -0 -0 0 -0 39.219 -13.222 -9.913 130.68 -61.454 105.78 -0 0 -0 10.704 -17.071 13.764 10.704 -17.071 13.764 120.71 2.4715 -27.115 126.42 -70.701 134.74 -122.59 42.731 124.71 -0 0 -0 -0 0 -0 -0 0 -0 120.71 2.4715 -27.115 -123.35 -21.855 -16.639 86.264 7.5479 -8.9752 -0 0 -0 -0 0 -0 -0 0 -0 
0 0.96366 0 -0 0 -0 120.6 2.3642 -26.985 -20.105 -9.885 8.4771 -20.105 -9.885 8.4771 -16.961 -8.1145 7.352 -0 0 -0 -29.636 -19.631 -67.644 -72.06 -59.627 -45.595 -0 0 -0 -0 0 -0 39.186 -12.802 -9.414 131.07 -61.714 106.38 -0 0 -0 9.8365 -16.838 16.007 9.8365 -16.838 16.007 120.6 2.3642 -26.985 126.53 -70.885 134.81 -122.61 42.782 124.73 -0 0 -0 -0 0 -0 -0 0 -0 120.6 2.3642 -26.985 -123.22 -21.831 -16.432 86.29 7.5542 -8.9691 -0 0 -0 -0 0 -0 -0 0 -0 
0 0.96366 0 -0 0 -0 120.51 2.2481 -26.877 -20.051 -9.9911 8.4199 -20.051 -9.9911 8.4199 -16.915 -8.2056 7.3056 -0 0 -0 -29.863 -19.6 -66.804 -71.121 -59.068 -44.74 -0 0 -0 -0 0 -0 39.347 -12.178 -8.968 131.45 -61.967 106.94 -0 0 -0 9.1442 -16.522 18.457 9.1442 -16.522 18.457 120.51 2.2481 -26.877 126.61 -71.064 134.83 -122.62 42.795 124.74 -0 0 -0 -0 0 -0 -0 0 -0 120.51 2.2481 -26.877 -123.12 -21.823 -16.241 86.313 7.5778 -9.1132 -0 0 -0 -0 0 -0 -0 0 -0 
0 0.96366 0 -0 0 -0 120.49 2.1579 -26.823 -20.087 -10.171 8.3766 -20.087 -10.171 8.3766 -16.945 -8.3577 7.2736 -0 0 -0 -29.82 -19.455 -66.003 -70.202 -58.638 -44.054 -0 0 -0 -0 0 -0 39.699 -11.495 -8.659 131.74 -62.204 107.38 -0 0 -0 8.6745 -16.136 20.921 8.6745 -16.136 20.921 120.49 2.1579 -26.823 126.68 -71.177 134.82 -122.6 42.76 124.74 -0 0 -0 -0 0 -0 -0 0 -0 120.49 2.1579 -26.823 -123.1 -21.826 -16.13 86.34 7.615 -9.4083 -0 0 -0 -0 0 -0 -0 0 -0 
